REM MD5 84ff948990040ed42ee48b8f4edf4feb
FILE "Official U.S. PlayStation Magazine Demo Disc 43 (USA).bin" BINARY
  TRACK 01 MODE2/2352
    INDEX 01 00:00:00
  TRACK 02 AUDIO
    INDEX 00 22:44:23
    INDEX 01 22:46:23
  TRACK 03 AUDIO
    INDEX 00 23:39:13
    INDEX 01 23:41:13
  TRACK 04 AUDIO
    INDEX 00 25:52:73
    INDEX 01 25:54:73
  TRACK 05 AUDIO
    INDEX 00 26:15:19
    INDEX 01 26:17:19
  TRACK 06 AUDIO
    INDEX 00 26:35:16
    INDEX 01 26:37:16
REM LEADOUT 26:43:12
